<?xml version="1.0" encoding="UTF-8"?>
<svg width="24px" height="30.7846154px" viewBox="0 0 24 30.7846154" version="1.1" xmlns="http://www.w3.org/2000/svg" xmlns:xlink="http://www.w3.org/1999/xlink">
    <title>pinterest-icon</title>
    <g id="Page-1" stroke="none" stroke-width="1" fill="none" fill-rule="evenodd">
        <g id="pinterest-icon" fill="#000000">
            <path d="M5.32615385,30.7753846 C7.03384615,29.2523077 8.20615385,27.0830769 8.77846154,24.8584615 C9.00923077,23.9815385 9.95076923,20.3907692 9.95076923,20.3907692 C10.56,21.5630769 12.36,22.5507692 14.2523077,22.5507692 C19.92,22.5507692 24,17.3446154 24,10.8553846 C24,4.64307692 18.9323077,0 12.4153846,0 C4.30153846,0 0,5.44615385 0,11.3723077 C0,14.1230769 1.46769231,17.5569231 3.81230769,18.6461538 C4.16307692,18.8215385 4.35692308,18.7384615 4.44,18.3876923 C4.49538462,18.12 4.81846154,16.8553846 4.96615385,16.2553846 C5.01230769,16.0707692 4.99384615,15.8953846 4.83692308,15.7107692 C4.06153846,14.7692308 3.43384615,13.0338462 3.43384615,11.4276923 C3.43384615,7.28307692 6.57230769,3.26769231 11.9169231,3.26769231 C16.5323077,3.26769231 19.7630769,6.40615385 19.7630769,10.9107692 C19.7630769,15.9969231 17.1969231,19.5230769 13.8553846,19.5230769 C12.0092308,19.5230769 10.6246154,18 11.0769231,16.1261538 C11.6123077,13.8923077 12.6369231,11.4830769 12.6369231,9.87692308 C12.6369231,8.43692308 11.8707692,7.23692308 10.2553846,7.23692308 C8.36307692,7.23692308 6.85846154,9.18461538 6.85846154,11.8061538 C6.85846154,13.4676923 7.41230769,14.5938462 7.41230769,14.5938462 C7.41230769,14.5938462 5.54769231,22.4676923 5.20615385,23.9353846 C4.82769231,25.56 4.97538462,27.84 5.14153846,29.3261538 L5.30769231,30.7846154 L5.32615385,30.7753846 Z" id="Path"></path>
        </g>
    </g>
</svg>