<?xml version="1.0" encoding="UTF-8"?>
<svg width="22.2960209px" height="19.5006349px" viewBox="0 0 22.2960209 19.5006349" version="1.1" xmlns="http://www.w3.org/2000/svg" xmlns:xlink="http://www.w3.org/1999/xlink">
    <title>Path</title>
    <g id="Page-1" stroke="none" stroke-width="1" fill="none" fill-rule="evenodd">
        <path d="M15.7781005,4.75813224 C15.2796395,4.28257488 14.6049232,4.10793023 13.8528775,4.23332509 C14.5293355,2.71967997 15.8452412,1.75258526 17.0128452,1.31841867 C18.3605361,0.817188548 19.685063,0.913854358 20.4695905,1.57069286 C21.2025651,2.18421949 21.4549305,3.27173168 21.1996042,4.71578091 C20.0093588,11.4299069 13.2688143,17.0286649 11.5290774,18.1603621 C11.0234756,18.488956 10.5277141,18.5781994 10.0131428,18.433419 C9.12847031,18.1843758 8.35805022,17.2924656 7.98629444,16.5175673 C7.65459668,15.8303406 6.96551177,13.5703516 6.29906834,11.3847612 C5.11605072,7.50511783 4.59642862,5.88031139 4.21727082,5.43217324 C3.94034803,5.1034047 3.58870834,4.97914503 3.21486258,4.97914503 C2.59657585,4.97914503 1.91811503,5.31944012 1.42000234,5.63685676 L1.296345,5.47408795 C1.67184533,5.056076 2.30763566,4.37618441 3.06586419,3.67821709 C4.62464339,2.24324938 5.98435169,1.37936965 6.99790651,1.18001279 C7.47877683,1.08553004 7.73906683,1.21686281 7.89311602,1.32391998 C8.78954469,1.94705207 9.15381136,4.14408167 9.4464961,5.90956437 C9.5764234,6.69284559 9.69903575,7.43272762 9.86196737,8.08511269 C10.2157841,9.50479899 10.5098622,10.6065447 10.795232,11.3688686 C10.9882942,11.8845942 11.3900064,12.9576982 12.2912246,12.9576982 C12.6600196,12.9576982 13.6396993,12.9576982 15.9210902,8.68615223 C16.7223375,7.18272382 16.664863,5.60411089 15.7781005,4.75813224 Z" id="Path" stroke="#000000" stroke-width="2" fill-rule="nonzero"></path>
    </g>
</svg>