<?xml version="1.0" encoding="UTF-8"?>
<svg width="209px" height="209px" viewBox="0 0 209 209" version="1.1" xmlns="http://www.w3.org/2000/svg" xmlns:xlink="http://www.w3.org/1999/xlink">
    <title>Artboard</title>
    <g id="Artboard" stroke="none" stroke-width="1" fill="none" fill-rule="evenodd">
        <g id="moma-2" transform="translate(0, 75)" fill="#000000" fill-rule="nonzero">
            <g id="moma">
                <path d="M41.998,51.996 L41.998,13.332 L32.378,51.996 L21.495,51.996 L11.997,13.216 L11.997,51.996 L0,51.996 L0,0 L19.635,0 L27.539,32.877 L35.54,0 L54.993,0 L54.993,51.996 L41.993,51.996 L41.998,51.996 Z M142.998,51.996 L155.998,51.996 L155.998,0 L136.544,0 L128.539,32.877 L120.63,0 L101,0 L101,51.996 L112.997,51.996 L112.997,13.216 L122.495,51.996 L133.378,51.996 L142.998,13.332 L142.998,51.996 L142.998,51.996 Z M71.754,33.226 L71.754,34.962 C71.754,41.557 74.374,44.256 77.947,44.256 C81.647,44.256 84.264,41.556 84.264,34.962 L84.264,33.226 C84.264,26.514 81.646,23.936 77.947,23.936 C74.375,23.936 71.754,26.514 71.754,33.226 L71.754,33.226 Z M59.439,33.681 C59.439,21.961 68.169,15.531 77.769,15.531 C87.506,15.531 96.561,21.969 96.561,33.691 L96.561,34.455 C96.561,46.433 87.505,52.74 77.768,52.74 C68.16,52.74 59.428,46.432 59.428,34.454 L59.428,33.688 L59.439,33.681 Z M193.32,43 L175,43 L172.15,51.996 L159.902,51.996 L176.752,0 L193.01,0 L208.915,51.996 L196.045,51.996 L193.325,43 L193.32,43 Z M184.5,12.585 L178.29,33.005 L190.425,33.005 L184.498,12.585 L184.5,12.585 Z" id="Shape"></path>
            </g>
        </g>
    </g>
</svg>